{"title":"Planes Trains and Automobiles (1987) DVDRip XviD AC3 peaSoup","uid":8989203,"size":1285803396,"categoryP":"video","categoryS":"movies","magnet":"?xt=urn:btih:a2a7061e4e0da8ddf4204930079ca8b32868544d&amp;dn=Planes+Trains+and+Automobiles+%281987%29+DVDRip+XviD+AC3+peaSoup&amp;tr=udp%3A%2F%2Ftracker.openbittorrent.com%3A80&amp;tr=udp%3A%2F%2Fopen.demonii.com%3A1337&amp;tr=udp%3A%2F%2Ftracker.coppersurfer.tk%3A6969&amp;tr=udp%3A%2F%2Fexodus.desync.com%3A6969","seeders":6,"leechers":0,"uploader":"peaSoup","files":-1,"time":1380748210,"description":"Storyline\n\nAll that Neal Page wants to do is to get home for Thanksgiving. His flight has been cancelled due to bad weather, so he decides on other means of transport. As well as bad luck, Neal is blessed with the presence of Del Griffith, Shower Curtain Ring Salesman and all-around blabbermouth, who is never short of advice, conversation, bad jokes, or company. And when he decides that he is going the same direction as Neal....                                                                            &lt;a href=&quot; http://imageshack.us/a/img856/553/sbg7.jpg&quot; rel=&quot;nofollow&quot; target=&quot;_NEW&quot;&gt; http://imageshack.us/a/img856/553/sbg7.jpg&lt;/a&gt;                                          &lt;a href=&quot; http://imageshack.us/a/img29/1214/slkw.jpg&quot; rel=&quot;nofollow&quot; target=&quot;_NEW&quot;&gt; http://imageshack.us/a/img29/1214/slkw.jpg&lt;/a&gt;                                          &lt;a href=&quot; http://imageshack.us/a/img547/6060/saek.jpg&quot; rel=&quot;nofollow&quot; target=&quot;_NEW&quot;&gt; http://imageshack.us/a/img547/6060/saek.jpg&lt;/a&gt;                                         &lt;a href=&quot; http://imageshack.us/a/img802/5407/o2kr.jpg&quot; rel=&quot;nofollow&quot; target=&quot;_NEW&quot;&gt; http://imageshack.us/a/img802/5407/o2kr.jpg&lt;/a&gt;                                         &lt;a href=&quot; http://imageshack.us/a/img837/3896/1d0c.jpg&quot; rel=&quot;nofollow&quot; target=&quot;_NEW&quot;&gt; http://imageshack.us/a/img837/3896/1d0c.jpg&lt;/a&gt;                                          Format                                   : AVI\nFormat/Info                              : Audio Video Interleave\nFormat profile                           : OpenDML\nFile size                                : 1.20 GiB\nDuration                                 : 1h 28mn\nOverall bit rate                         : 1 934 Kbps\nMovie name                               : Planes Trains and Automobiles (1987) DVDRip XviD AC3 peaSoup\nWriting application                      : Lavf53.21.0\nOriginal source form/Name                : PLANES_TRAINS\n\nVideo\nID                                       : 0\nFormat                                   : MPEG-4 Visual\nFormat profile                           : Advanced Simple@L5\nFormat settings, BVOP                    : 2\nFormat settings, QPel                    : No\nFormat settings, GMC                     : No warppoints\nFormat settings, Matrix                  : Default (H.263)\nMuxing mode                              : Packed bitstream\nCodec ID                                 : XVID\nCodec ID/Hint                            : XviD\nDuration                                 : 1h 28mn\nBit rate                                 : 1 472 Kbps\nWidth                                    : 720 pixels\nHeight                                   : 410 pixels\nDisplay aspect ratio                     : 16:9\nFrame rate                               : 25.000 fps\nColor space                              : YUV\nChroma subsampling                       : 4:2:0\nBit depth                                : 8 bits\nScan type                                : Progressive\nCompression mode                         : Lossy\nBits/(Pixel*Frame)                       : 0.200\nStream size                              : 934 MiB (76%)\nWriting library                          : XviD 1.2.1 (UTC 2008-12-04)\n\nAudio\nID                                       : 1\nFormat                                   : AC-3\nFormat/Info                              : Audio Coding 3\nMode extension                           : CM (complete main)\nFormat settings, Endianness              : Big\nCodec ID                                 : 2000\nDuration                                 : 1h 28mn\nBit rate mode                            : Constant\nBit rate                                 : 448 Kbps\nChannel(s)                               : 6 channels\nChannel positions                        : Front: L C R, Side: L R, LFE\nSampling rate                            : 48.0 KHz\nBit depth                                : 16 bits\nCompression mode                         : Lossy\nStream size                              : 284 MiB (23%)\nAlignment                                : Aligned on interleaves\nInterleave, duration                     : 32 ms (0.80 video frame)\n\n","torrent":{"xt":"urn:btih:a2a7061e4e0da8ddf4204930079ca8b32868544d","amp;dn":"Planes+Trains+and+Automobiles+%281987%29+DVDRip+XviD+AC3+peaSoup","amp;tr":["udp%3A%2F%2Ftracker.openbittorrent.com%3A80","udp%3A%2F%2Fopen.demonii.com%3A1337","udp%3A%2F%2Ftracker.coppersurfer.tk%3A6969","udp%3A%2F%2Fexodus.desync.com%3A6969"],"infoHash":"a2a7061e4e0da8ddf4204930079ca8b32868544d","infoHashBuffer":{"type":"Buffer","data":[162,167,6,30,78,13,168,221,244,32,73,48,7,156,168,179,40,104,84,77]},"announce":[],"urlList":[]}}